<svg width="52" height="36" viewBox="0 0 52 36" fill="none" xmlns="http://www.w3.org/2000/svg">
<path d="M0 8C0 4.22876 0 2.34315 1.17157 1.17157C2.34315 0 4.22876 0 8 0H26V36H8C4.22876 36 2.34315 36 1.17157 34.8284C0 33.6569 0 31.7712 0 28V8Z" fill="#1B1B19"/>
<path d="M52 8C52 4.22876 52 2.34315 50.8284 1.17157C49.6569 0 47.7712 0 44 0H26V36H44C47.7712 36 49.6569 36 50.8284 34.8284C52 33.6569 52 31.7712 52 28V8Z" fill="#474748"/>
<path d="M27.8054 11.5323C28.3249 12.1046 28.7773 12.7345 29.1497 13.4114C29.904 14.7826 30.3334 16.3437 30.3334 17.9999C30.3334 19.6561 29.904 21.217 29.1497 22.5884C28.7773 23.2653 28.3249 23.895 27.8054 24.4673C27.2708 25.0562 26.6648 25.5832 26 26.0365C27.6711 27.1756 29.7094 27.8483 31.9091 27.8483C37.5568 27.8483 42.1516 23.4303 42.1516 17.9999C42.1516 12.5695 37.5568 8.15137 31.9091 8.15137C29.7094 8.15137 27.6711 8.82383 26 9.96318C26.6646 10.4165 27.2705 10.9436 27.8054 11.5323Z" fill="#FFB655"/>
<path d="M29.1485 13.4122C28.7762 12.7351 28.3238 12.1054 27.8043 11.5331C27.2693 10.9441 26.6636 10.4174 25.9989 9.96416C24.328 8.8248 22.2895 8.15234 20.0898 8.15234C14.4421 8.15234 9.84741 12.5704 9.84741 18.0008C9.84741 23.4312 14.4422 27.8492 20.0898 27.8492C22.2895 27.8492 24.328 27.1767 25.9989 26.0374C26.6637 25.5842 27.2694 25.0571 27.8043 24.4684C28.3238 23.8961 28.7762 23.2662 29.1485 22.5895C29.9029 21.2181 30.3323 19.657 30.3323 18.001C30.3323 16.3443 29.9029 14.7834 29.1485 13.4122Z" fill="#D8143A"/>
</svg>
