<svg width="70" height="70" viewBox="0 0 70 70" fill="none" xmlns="http://www.w3.org/2000/svg">
<g id="icon/mask">
<g id="Outline_Icons">
<g id="Group">
<path id="Shape" fill-rule="evenodd" clip-rule="evenodd" d="M60.8738 36.7857V12.1227C55.5123 17.48 21.1986 17.4843 15.837 12.1227V36.7857C15.837 50.404 34.0662 61.4487 38.3554 61.4487C42.6446 61.4487 60.8738 50.404 60.8738 36.7857Z" fill="#767676" fill-opacity="0.3"/>
<path id="Shape Copy 3" fill-rule="evenodd" clip-rule="evenodd" d="M58.0881 34V9.33704C52.7266 14.6943 18.4129 14.6986 13.0513 9.33704V34C13.0513 47.6183 31.2805 58.663 35.5697 58.663C39.8589 58.663 58.0881 47.6183 58.0881 34Z" stroke="#767676" stroke-width="2" stroke-linecap="round" stroke-linejoin="round"/>
<path id="Shape Copy 7" opacity="0.5" d="M10.337 13.0513V14.0513C10.8893 14.0513 11.337 13.6036 11.337 13.0513H10.337ZM8.33704 13.0513H7.33704C7.33704 13.6036 7.78475 14.0513 8.33704 14.0513V13.0513ZM11.143 45.2139L12.0294 44.751H12.0294L11.143 45.2139ZM12.4923 45.6374L12.0294 44.751L12.0294 44.751L12.4923 45.6374ZM12.9159 44.2881L12.0294 44.751L12.9159 44.2881ZM15.0111 47.6259L15.8135 47.029L15.0111 47.6259ZM13.6119 47.4204L13.015 46.6181L13.6119 47.4204ZM16.5162 49.4481L15.7819 50.127L16.5162 49.4481ZM16.9592 49.9084L16.2555 50.6188H16.2555L16.9592 49.9084ZM17.0733 50.0194L16.3839 50.7437L16.3869 50.7466L17.0733 50.0194ZM17.0997 50.0443L16.4133 50.7715L16.4179 50.7758L17.0997 50.0443ZM17.1043 50.0486L16.4224 50.7801L16.4281 50.7853L17.1043 50.0486ZM17.1045 50.0487L16.4283 50.7855L16.4292 50.7863L17.1045 50.0487ZM17.1045 50.0488L17.7805 49.3118L17.7798 49.3112L17.1045 50.0488ZM17.1658 51.4614L17.903 52.1371L17.1658 51.4614ZM15.7529 51.5229L15.0157 50.8472C14.6425 51.2544 14.6701 51.8869 15.0772 52.2601L15.7529 51.5229ZM17.1658 51.4614C17.539 51.0543 17.5114 50.4217 17.1043 50.0486C16.6972 49.6754 16.0646 49.7029 15.6914 50.1101L17.1658 51.4614ZM15.7527 51.5227L15.0765 52.2594L15.0775 52.2604L15.7527 51.5227ZM15.7524 51.5225L15.0761 52.2591L15.0762 52.2592L15.7524 51.5225ZM15.7519 51.522L15.0749 52.258L15.0755 52.2586L15.7519 51.522ZM15.7505 51.5207L15.0722 52.2556L15.0735 52.2567L15.7505 51.5207ZM15.7467 51.5172L15.0658 52.2496L15.0684 52.252L15.7467 51.5172ZM15.7348 51.5061L15.0523 52.237L15.0538 52.2385L15.7348 51.5061ZM15.6945 51.4681L15.005 52.1925L15.005 52.1925L15.6945 51.4681ZM15.5517 51.3293L16.2555 50.6188H16.2555L15.5517 51.3293ZM15.0477 50.8059L15.7819 50.127L15.0477 50.8059ZM13.4064 48.8196L12.6041 49.4165L13.4064 48.8196ZM11.337 13.0513C11.337 11.9468 10.4416 11.0513 9.33704 11.0513V13.0513H11.337ZM9.33704 14.0513H10.337V12.0513H9.33704V14.0513ZM8.33704 14.0513H9.33704V12.0513H8.33704V14.0513ZM9.33704 11.0513C8.23247 11.0513 7.33704 11.9468 7.33704 13.0513H9.33704V11.0513ZM9.33704 12.0513C8.83706 12.0513 8.58697 12.0513 8.46187 12.0514C8.39945 12.0514 8.36778 12.0514 8.35167 12.0514C8.34414 12.0514 8.33844 12.0514 8.33438 12.0514C8.33322 12.0514 8.33144 12.0515 8.32937 12.0515C8.32793 12.0515 8.32331 12.0515 8.31752 12.0516C8.31467 12.0517 8.30882 12.0518 8.30144 12.0521C8.29654 12.0523 8.27856 12.0529 8.25564 12.0548C8.24428 12.0557 8.22118 12.0578 8.19218 12.062C8.17113 12.0651 8.10405 12.0751 8.02189 12.1024C7.964 12.1216 7.72255 12.2031 7.53586 12.453C7.43177 12.5924 7.37786 12.7397 7.3539 12.8686C7.34658 12.9136 7.33945 12.982 7.33811 13.0051C7.3373 13.0283 7.33704 13.0515 7.33704 13.0515H9.33704C9.33704 13.0359 9.35834 13.3552 9.13821 13.6499C8.95152 13.8998 8.71008 13.9813 8.65219 14.0005C8.57004 14.0278 8.50296 14.0378 8.48192 14.0409C8.45293 14.0451 8.42984 14.0472 8.4185 14.0481C8.3956 14.05 8.37767 14.0506 8.37284 14.0508C8.36553 14.0511 8.35977 14.0512 8.35704 14.0512C8.35149 14.0514 8.34725 14.0514 8.34635 14.0514C8.34483 14.0514 8.34379 14.0514 8.3436 14.0514C8.34345 14.0514 8.34555 14.0514 8.35365 14.0514C8.36879 14.0514 8.39962 14.0514 8.4622 14.0514C8.5871 14.0513 8.83701 14.0513 9.33704 14.0513V12.0513ZM7.33704 13.0515V13.0518H9.33704V13.0515H7.33704ZM7.33704 13.0518V13.0524H9.33704V13.0518H7.33704ZM7.33704 13.0524V13.0533H9.33704V13.0524H7.33704ZM7.33704 13.0533V13.0544H9.33704V13.0533H7.33704ZM7.33704 13.0544V13.0558H9.33704V13.0544H7.33704ZM7.33704 13.0558V13.0574H9.33704V13.0558H7.33704ZM7.33704 13.0574V13.0592H9.33704V13.0574H7.33704ZM7.33704 13.0592V13.0613H9.33704V13.0592H7.33704ZM7.33704 13.0613V13.0636H9.33704V13.0613H7.33704ZM7.33704 13.0636V13.0662H9.33704V13.0636H7.33704ZM7.33704 13.0662V13.069H9.33704V13.0662H7.33704ZM7.33704 13.069V13.072H9.33704V13.069H7.33704ZM7.33704 13.072V13.0753H9.33704V13.072H7.33704ZM7.33704 13.0753V13.0789H9.33704V13.0753H7.33704ZM7.33704 13.0789V13.0826H9.33704V13.0789H7.33704ZM7.33704 13.0826V13.0867H9.33704V13.0826H7.33704ZM7.33704 13.0867V13.0909H9.33704V13.0867H7.33704ZM7.33704 13.0909V13.0954H9.33704V13.0909H7.33704ZM7.33704 13.0954V13.1001H9.33704V13.0954H7.33704ZM7.33704 13.1001V13.1051H9.33704V13.1001H7.33704ZM7.33704 13.1051V13.1103H9.33704V13.1051H7.33704ZM7.33704 13.1103V13.1157H9.33704V13.1103H7.33704ZM7.33704 13.1157V13.1214H9.33704V13.1157H7.33704ZM7.33704 13.1214V13.1273H9.33704V13.1214H7.33704ZM7.33704 13.1273V13.1334H9.33704V13.1273H7.33704ZM7.33704 13.1334V13.1398H9.33704V13.1334H7.33704ZM7.33704 13.1398V13.1464H9.33704V13.1398H7.33704ZM7.33704 13.1464V13.1533H9.33704V13.1464H7.33704ZM7.33704 13.1533V13.1603H9.33704V13.1533H7.33704ZM7.33704 13.1603V13.1676H9.33704V13.1603H7.33704ZM7.33704 13.1676V13.1752H9.33704V13.1676H7.33704ZM7.33704 13.1752V13.1829H9.33704V13.1752H7.33704ZM7.33704 13.1829V13.1909H9.33704V13.1829H7.33704ZM7.33704 13.1909V13.1992H9.33704V13.1909H7.33704ZM7.33704 13.1992V13.2076H9.33704V13.1992H7.33704ZM7.33704 13.2076V13.2163H9.33704V13.2076H7.33704ZM7.33704 13.2163V13.2252H9.33704V13.2163H7.33704ZM7.33704 13.2252V13.2344H9.33704V13.2252H7.33704ZM7.33704 13.2344V13.2438H9.33704V13.2344H7.33704ZM7.33704 13.2438V13.2534H9.33704V13.2438H7.33704ZM7.33704 13.2534V13.2632H9.33704V13.2534H7.33704ZM7.33704 13.2632V13.2732H9.33704V13.2632H7.33704ZM7.33704 13.2732V13.2835H9.33704V13.2732H7.33704ZM7.33704 13.2835V13.294H9.33704V13.2835H7.33704ZM7.33704 13.294V13.3047H9.33704V13.294H7.33704ZM7.33704 13.3047V13.3157H9.33704V13.3047H7.33704ZM7.33704 13.3157V13.3269H9.33704V13.3157H7.33704ZM7.33704 13.3269V13.3383H9.33704V13.3269H7.33704ZM7.33704 13.3383V13.3499H9.33704V13.3383H7.33704ZM7.33704 13.3499V13.3617H9.33704V13.3499H7.33704ZM7.33704 13.3617V13.3738H9.33704V13.3617H7.33704ZM7.33704 13.3738V13.3861H9.33704V13.3738H7.33704ZM7.33704 13.3861V13.3986H9.33704V13.3861H7.33704ZM7.33704 13.3986V13.4113H9.33704V13.3986H7.33704ZM7.33704 13.4113V13.4242H9.33704V13.4113H7.33704ZM7.33704 13.4242V13.4374H9.33704V13.4242H7.33704ZM7.33704 13.4374V13.4508H9.33704V13.4374H7.33704ZM7.33704 13.4508V13.4644H9.33704V13.4508H7.33704ZM7.33704 13.4644V13.4782H9.33704V13.4644H7.33704ZM7.33704 13.4782V13.4922H9.33704V13.4782H7.33704ZM7.33704 13.4922V13.5065H9.33704V13.4922H7.33704ZM7.33704 13.5065V13.5209H9.33704V13.5065H7.33704ZM7.33704 13.5209V13.5356H9.33704V13.5209H7.33704ZM7.33704 13.5356V13.5505H9.33704V13.5356H7.33704ZM7.33704 13.5505V13.5656H9.33704V13.5505H7.33704ZM7.33704 13.5656V13.5809H9.33704V13.5656H7.33704ZM7.33704 13.5809V13.5964H9.33704V13.5809H7.33704ZM7.33704 13.5964V13.6122H9.33704V13.5964H7.33704ZM7.33704 13.6122V13.6282H9.33704V13.6122H7.33704ZM7.33704 13.6282V13.6443H9.33704V13.6282H7.33704ZM7.33704 13.6443V13.6607H9.33704V13.6443H7.33704ZM7.33704 13.6607V13.6773H9.33704V13.6607H7.33704ZM7.33704 13.6773V13.6941H9.33704V13.6773H7.33704ZM7.33704 13.6941V13.7111H9.33704V13.6941H7.33704ZM7.33704 13.7111V13.7283H9.33704V13.7111H7.33704ZM7.33704 13.7283V13.7458H9.33704V13.7283H7.33704ZM7.33704 13.7458V13.7634H9.33704V13.7458H7.33704ZM7.33704 13.7634V13.7812H9.33704V13.7634H7.33704ZM7.33704 13.7812V13.7993H9.33704V13.7812H7.33704ZM7.33704 13.7993V13.8176H9.33704V13.7993H7.33704ZM7.33704 13.8176V13.836H9.33704V13.8176H7.33704ZM7.33704 13.836V13.8547H9.33704V13.836H7.33704ZM7.33704 13.8547V13.8736H9.33704V13.8547H7.33704ZM7.33704 13.8736V13.8926H9.33704V13.8736H7.33704ZM7.33704 13.8926V13.9119H9.33704V13.8926H7.33704ZM7.33704 13.9119V13.9314H9.33704V13.9119H7.33704ZM7.33704 13.9314V13.9511H9.33704V13.9314H7.33704ZM7.33704 13.9511V13.971H9.33704V13.9511H7.33704ZM7.33704 13.971V13.9911H9.33704V13.971H7.33704ZM7.33704 13.9911V14.0114H9.33704V13.9911H7.33704ZM7.33704 14.0114V14.0319H9.33704V14.0114H7.33704ZM7.33704 14.0319V14.0526H9.33704V14.0319H7.33704ZM7.33704 14.0526V14.0735H9.33704V14.0526H7.33704ZM7.33704 14.0735V14.0946H9.33704V14.0735H7.33704ZM7.33704 14.0946V14.1159H9.33704V14.0946H7.33704ZM7.33704 14.1159V14.8993H9.33704V14.1159H7.33704ZM7.33704 14.8993V15.8693H9.33704V14.8993H7.33704ZM7.33704 15.8693V15.9357H9.33704V15.8693H7.33704ZM7.33704 15.9357V16.0028H9.33704V15.9357H7.33704ZM7.33704 16.0028V16.0706H9.33704V16.0028H7.33704ZM7.33704 16.0706V16.139H9.33704V16.0706H7.33704ZM7.33704 16.139V16.208H9.33704V16.139H7.33704ZM7.33704 16.208V16.2777H9.33704V16.208H7.33704ZM7.33704 16.2777V16.348H9.33704V16.2777H7.33704ZM7.33704 16.348V16.3834H9.33704V16.348H7.33704ZM7.33704 16.3834V16.419H9.33704V16.3834H7.33704ZM7.33704 16.419V16.5628H9.33704V16.419H7.33704ZM7.33704 16.5628V16.5991H9.33704V16.5628H7.33704ZM7.33704 16.5991V16.6356H9.33704V16.5991H7.33704ZM7.33704 16.6356V16.7091H9.33704V16.6356H7.33704ZM7.33704 16.7091V16.7831H9.33704V16.7091H7.33704ZM7.33704 16.7831V16.8204H9.33704V16.7831H7.33704ZM7.33704 16.8204V16.8578H9.33704V16.8204H7.33704ZM7.33704 16.8578V16.9331H9.33704V16.8578H7.33704ZM7.33704 16.9331V16.971H9.33704V16.9331H7.33704ZM7.33704 16.971V17.009H9.33704V16.971H7.33704ZM7.33704 17.009V19.731H9.33704V17.009H7.33704ZM7.33704 19.731V34.0715H9.33704V19.731H7.33704ZM7.33704 34.0715C7.33704 38.7467 8.69793 42.6921 10.2566 45.6768L12.0294 44.751C10.5824 41.9801 9.33704 38.3519 9.33704 34.0715H7.33704ZM10.2566 45.6768C10.7679 46.6559 11.9761 47.0351 12.9552 46.5238L12.0294 44.751H12.0294L10.2566 45.6768ZM12.9552 46.5238C13.9343 46.0125 14.3136 44.8043 13.8023 43.8252L12.0294 44.751L12.0294 44.751L12.9552 46.5238ZM13.8023 43.8252C12.467 41.2683 11.337 37.9572 11.337 34.0715H9.33704C9.33704 38.3519 10.5824 41.9801 12.0294 44.751L13.8023 43.8252ZM11.337 34.0715V19.731H9.33704V34.0715H11.337ZM11.337 19.731V17.009H9.33704V19.731H11.337ZM11.337 17.009V14.8993H9.33704V17.009H11.337ZM11.337 14.8993V14.1159H9.33704V14.8993H11.337ZM11.337 14.1159V14.0946H9.33704V14.1159H11.337ZM11.337 14.0946V14.0735H9.33704V14.0946H11.337ZM11.337 14.0735V14.0526H9.33704V14.0735H11.337ZM11.337 14.0526V14.0319H9.33704V14.0526H11.337ZM11.337 14.0319V14.0114H9.33704V14.0319H11.337ZM11.337 14.0114V13.9911H9.33704V14.0114H11.337ZM11.337 13.9911V13.971H9.33704V13.9911H11.337ZM11.337 13.971V13.9511H9.33704V13.971H11.337ZM11.337 13.9511V13.9314H9.33704V13.9511H11.337ZM11.337 13.9314V13.9119H9.33704V13.9314H11.337ZM11.337 13.9119V13.8926H9.33704V13.9119H11.337ZM11.337 13.8926V13.8736H9.33704V13.8926H11.337ZM11.337 13.8736V13.8547H9.33704V13.8736H11.337ZM11.337 13.8547V13.836H9.33704V13.8547H11.337ZM11.337 13.836V13.8176H9.33704V13.836H11.337ZM11.337 13.8176V13.7993H9.33704V13.8176H11.337ZM11.337 13.7993V13.7812H9.33704V13.7993H11.337ZM11.337 13.7812V13.7634H9.33704V13.7812H11.337ZM11.337 13.7634V13.7458H9.33704V13.7634H11.337ZM11.337 13.7458V13.7283H9.33704V13.7458H11.337ZM11.337 13.7283V13.7111H9.33704V13.7283H11.337ZM11.337 13.7111V13.6941H9.33704V13.7111H11.337ZM11.337 13.6941V13.6773H9.33704V13.6941H11.337ZM11.337 13.6773V13.6607H9.33704V13.6773H11.337ZM11.337 13.6607V13.6443H9.33704V13.6607H11.337ZM11.337 13.6443V13.6282H9.33704V13.6443H11.337ZM11.337 13.6282V13.6122H9.33704V13.6282H11.337ZM11.337 13.6122V13.5964H9.33704V13.6122H11.337ZM11.337 13.5964V13.5809H9.33704V13.5964H11.337ZM11.337 13.5809V13.5656H9.33704V13.5809H11.337ZM11.337 13.5656V13.5505H9.33704V13.5656H11.337ZM11.337 13.5505V13.5356H9.33704V13.5505H11.337ZM11.337 13.5356V13.5209H9.33704V13.5356H11.337ZM11.337 13.5209V13.5065H9.33704V13.5209H11.337ZM11.337 13.5065V13.4922H9.33704V13.5065H11.337ZM11.337 13.4922V13.4782H9.33704V13.4922H11.337ZM11.337 13.4782V13.4644H9.33704V13.4782H11.337ZM11.337 13.4644V13.4508H9.33704V13.4644H11.337ZM11.337 13.4508V13.4374H9.33704V13.4508H11.337ZM11.337 13.4374V13.4242H9.33704V13.4374H11.337ZM11.337 13.4242V13.4113H9.33704V13.4242H11.337ZM11.337 13.4113V13.3986H9.33704V13.4113H11.337ZM11.337 13.3986V13.3861H9.33704V13.3986H11.337ZM11.337 13.3861V13.3738H9.33704V13.3861H11.337ZM11.337 13.3738V13.3617H9.33704V13.3738H11.337ZM11.337 13.3617V13.3499H9.33704V13.3617H11.337ZM11.337 13.3499V13.3383H9.33704V13.3499H11.337ZM11.337 13.3383V13.3269H9.33704V13.3383H11.337ZM11.337 13.3269V13.3157H9.33704V13.3269H11.337ZM11.337 13.3157V13.3047H9.33704V13.3157H11.337ZM11.337 13.3047V13.294H9.33704V13.3047H11.337ZM11.337 13.294V13.2835H9.33704V13.294H11.337ZM11.337 13.2835V13.2732H9.33704V13.2835H11.337ZM11.337 13.2732V13.2632H9.33704V13.2732H11.337ZM11.337 13.2632V13.2534H9.33704V13.2632H11.337ZM11.337 13.2534V13.2438H9.33704V13.2534H11.337ZM11.337 13.2438V13.2344H9.33704V13.2438H11.337ZM11.337 13.2344V13.2252H9.33704V13.2344H11.337ZM11.337 13.2252V13.2163H9.33704V13.2252H11.337ZM11.337 13.2163V13.2076H9.33704V13.2163H11.337ZM11.337 13.2076V13.1992H9.33704V13.2076H11.337ZM11.337 13.1992V13.1909H9.33704V13.1992H11.337ZM11.337 13.1909V13.1829H9.33704V13.1909H11.337ZM11.337 13.1829V13.1752H9.33704V13.1829H11.337ZM11.337 13.1752V13.1676H9.33704V13.1752H11.337ZM11.337 13.1676V13.1603H9.33704V13.1676H11.337ZM11.337 13.1603V13.1533H9.33704V13.1603H11.337ZM11.337 13.1533V13.1464H9.33704V13.1533H11.337ZM11.337 13.1464V13.1398H9.33704V13.1464H11.337ZM11.337 13.1398V13.1334H9.33704V13.1398H11.337ZM11.337 13.1334V13.1273H9.33704V13.1334H11.337ZM11.337 13.1273V13.1214H9.33704V13.1273H11.337ZM11.337 13.1214V13.1157H9.33704V13.1214H11.337ZM11.337 13.1157V13.1103H9.33704V13.1157H11.337ZM11.337 13.1103V13.1051H9.33704V13.1103H11.337ZM11.337 13.1051V13.1001H9.33704V13.1051H11.337ZM11.337 13.1001V13.0954H9.33704V13.1001H11.337ZM11.337 13.0954V13.0909H9.33704V13.0954H11.337ZM11.337 13.0909V13.0867H9.33704V13.0909H11.337ZM11.337 13.0867V13.0826H9.33704V13.0867H11.337ZM11.337 13.0826V13.0789H9.33704V13.0826H11.337ZM11.337 13.0789V13.0753H9.33704V13.0789H11.337ZM11.337 13.0753V13.072H9.33704V13.0753H11.337ZM11.337 13.072V13.069H9.33704V13.072H11.337ZM11.337 13.069V13.0662H9.33704V13.069H11.337ZM11.337 13.0662V13.0636H9.33704V13.0662H11.337ZM11.337 13.0636V13.0613H9.33704V13.0636H11.337ZM11.337 13.0613V13.0592H9.33704V13.0613H11.337ZM11.337 13.0592V13.0574H9.33704V13.0592H11.337ZM11.337 13.0574V13.0558H9.33704V13.0574H11.337ZM11.337 13.0558V13.0544H9.33704V13.0558H11.337ZM11.337 13.0544V13.0533H9.33704V13.0544H11.337ZM11.337 13.0533V13.0524H9.33704V13.0533H11.337ZM11.337 13.0524V13.0518H9.33704V13.0524H11.337ZM11.337 13.0518V13.0515H9.33704V13.0518H11.337ZM11.337 13.0515C11.337 13.0515 11.3368 13.0283 11.336 13.0051C11.3346 12.982 11.3275 12.9136 11.3202 12.8686C11.2962 12.7397 11.2423 12.5924 11.1382 12.453C10.9515 12.2031 10.7101 12.1216 10.6522 12.1024C10.57 12.0751 10.5029 12.0651 10.4819 12.062C10.4529 12.0578 10.4298 12.0557 10.4184 12.0548C10.3955 12.0529 10.3775 12.0523 10.3726 12.0521C10.3653 12.0518 10.3594 12.0517 10.3566 12.0516C10.3508 12.0515 10.3461 12.0515 10.3447 12.0515C10.3426 12.0515 10.3409 12.0514 10.3397 12.0514C10.3356 12.0514 10.3299 12.0514 10.3224 12.0514C10.3063 12.0514 10.2746 12.0514 10.2122 12.0514C10.0871 12.0513 9.83701 12.0513 9.33704 12.0513V14.0513C9.83706 14.0513 10.087 14.0513 10.2119 14.0514C10.2744 14.0514 10.3053 14.0514 10.3204 14.0514C10.3285 14.0514 10.3306 14.0514 10.3305 14.0514C10.3303 14.0514 10.3292 14.0514 10.3277 14.0514C10.3268 14.0514 10.3226 14.0514 10.317 14.0512C10.3143 14.0512 10.3085 14.0511 10.3012 14.0508C10.2964 14.0506 10.2785 14.05 10.2556 14.0481C10.2442 14.0472 10.2211 14.0451 10.1922 14.0409C10.1711 14.0378 10.104 14.0278 10.0219 14.0005C9.96399 13.9813 9.72255 13.8998 9.53586 13.6499C9.31573 13.3552 9.33704 13.0359 9.33704 13.0515H11.337ZM15.8135 47.029C15.1542 46.1428 13.9013 45.9588 13.015 46.6181L14.2088 48.2228L15.8135 47.029ZM17.2504 48.7692C16.8916 48.3812 16.3833 47.795 15.8135 47.029L14.2088 48.2228C14.8264 49.0531 15.3814 49.6938 15.7819 50.127L17.2504 48.7692ZM17.663 49.1979C17.5708 49.1066 17.4296 48.963 17.2504 48.7692L15.7819 50.127C15.9822 50.3436 16.1439 50.5083 16.2555 50.6188L17.663 49.1979ZM17.7627 49.295C17.7427 49.276 17.709 49.2435 17.663 49.1979L16.2555 50.6188C16.3113 50.6741 16.3546 50.7158 16.3839 50.7437L17.7627 49.295ZM17.7861 49.3171L17.7597 49.2922L16.3869 50.7466L16.4133 50.7715L17.7861 49.3171ZM17.7861 49.3171L17.7816 49.3128L16.4179 50.7758L16.4225 50.7801L17.7861 49.3171ZM17.7807 49.312L17.7805 49.3118L16.4281 50.7853L16.4283 50.7855L17.7807 49.312ZM17.7798 49.3112C17.7798 49.3112 17.7798 49.3112 17.7798 49.3112C17.7798 49.3112 17.7798 49.3112 17.7798 49.3112C17.7798 49.3112 17.7798 49.3112 17.7798 49.3112C17.7798 49.3112 17.7798 49.3112 17.7798 49.3112C17.7798 49.3112 17.7798 49.3112 17.7798 49.3112H17.7798H17.7798V49.3112C17.7798 49.3112 17.7798 49.3112 17.7798 49.3112C17.7798 49.3112 17.7798 49.3112 17.7798 49.3112C17.7798 49.3112 17.7798 49.3112 17.7798 49.3112C17.7798 49.3112 17.7798 49.3112 17.7798 49.3112C17.7798 49.3112 17.7798 49.3112 17.7798 49.3112V49.3112H17.7798H17.7798H17.7798C17.7798 49.3112 17.7798 49.3112 17.7798 49.3112C17.7798 49.3112 17.7798 49.3112 17.7798 49.3112C17.7798 49.3112 17.7798 49.3112 17.7798 49.3112C17.7798 49.3112 17.7798 49.3112 17.7798 49.3112C17.7798 49.3112 17.7798 49.3112 17.7798 49.3112C17.7798 49.3112 17.7798 49.3112 17.7798 49.3112C17.7798 49.3112 17.7798 49.3112 17.7798 49.3112H17.7798H17.7798C17.7798 49.3112 17.7798 49.3112 17.7798 49.3112C17.7798 49.3112 17.7798 49.3112 17.7798 49.3112C17.7798 49.3112 17.7798 49.3112 17.7798 49.3112V49.3112C17.7798 49.3112 17.7798 49.3112 17.7798 49.3112C17.7798 49.3112 17.7798 49.3112 17.7798 49.3112H17.7798H17.7798C17.7798 49.3112 17.7798 49.3112 17.7798 49.3112H17.7798C17.7798 49.3112 17.7798 49.3112 17.7798 49.3112C17.7798 49.3112 17.7798 49.3112 17.7798 49.3112C17.7798 49.3112 17.7798 49.3112 17.7798 49.3112C17.7798 49.3112 17.7798 49.3112 17.7798 49.3112C17.7798 49.3112 17.7798 49.3112 17.7798 49.3112C17.7798 49.3112 17.7798 49.3112 17.7798 49.3112H17.7798H17.7798C17.7798 49.3112 17.7798 49.3112 17.7798 49.3112C17.7798 49.3112 17.7798 49.3112 17.7798 49.3112C17.7798 49.3112 17.7798 49.3112 17.7798 49.3112C17.7798 49.3112 17.7798 49.3112 17.7798 49.3112C17.7798 49.3112 17.7798 49.3112 17.7798 49.3112C17.7798 49.3112 17.7798 49.3112 17.7798 49.3112V49.3112H17.7798H17.7798C17.7798 49.3112 17.7798 49.3112 17.7798 49.3112C17.7798 49.3112 17.7798 49.3112 17.7798 49.3112C17.7798 49.3112 17.7798 49.3112 17.7798 49.3112C17.7798 49.3112 17.7798 49.3112 17.7798 49.3112C17.7798 49.3112 17.7798 49.3112 17.7798 49.3112C17.7798 49.3112 17.7798 49.3112 17.7798 49.3112H17.7798H17.7798C17.7798 49.3112 17.7798 49.3112 17.7798 49.3112H17.7798C17.7798 49.3112 17.7798 49.3112 17.7798 49.3112C17.7798 49.3112 17.7798 49.3112 17.7798 49.3112C17.7798 49.3112 17.7798 49.3112 17.7798 49.3112C17.7798 49.3112 17.7798 49.3112 17.7798 49.3112C17.7798 49.3112 17.7798 49.3112 17.7798 49.3112C17.7798 49.3112 17.7798 49.3112 17.7798 49.3112H17.7798H17.7798L16.4292 50.7863C16.4292 50.7863 16.4292 50.7863 16.4292 50.7863V50.7863C16.4292 50.7863 16.4292 50.7863 16.4292 50.7863H16.4292H16.4292H16.4292C16.4292 50.7863 16.4292 50.7863 16.4292 50.7863C16.4292 50.7863 16.4292 50.7863 16.4292 50.7863C16.4292 50.7863 16.4292 50.7863 16.4292 50.7863C16.4292 50.7863 16.4292 50.7863 16.4292 50.7863C16.4292 50.7863 16.4292 50.7863 16.4292 50.7863C16.4292 50.7863 16.4292 50.7863 16.4292 50.7863C16.4292 50.7863 16.4292 50.7863 16.4292 50.7863H16.4292H16.4292C16.4292 50.7863 16.4292 50.7863 16.4292 50.7863C16.4292 50.7863 16.4292 50.7863 16.4292 50.7863V50.7863C16.4292 50.7863 16.4292 50.7863 16.4292 50.7863C16.4292 50.7863 16.4292 50.7863 16.4292 50.7863C16.4292 50.7863 16.4292 50.7863 16.4292 50.7863H16.4292H16.4292V50.7863H16.4292C16.4292 50.7863 16.4292 50.7863 16.4292 50.7863C16.4292 50.7863 16.4292 50.7863 16.4292 50.7863C16.4292 50.7863 16.4292 50.7863 16.4292 50.7863C16.4292 50.7863 16.4292 50.7863 16.4292 50.7863C16.4292 50.7863 16.4292 50.7863 16.4292 50.7863H16.4292H16.4292H16.4292C16.4292 50.7863 16.4292 50.7863 16.4292 50.7863C16.4292 50.7863 16.4292 50.7863 16.4292 50.7863C16.4292 50.7863 16.4292 50.7863 16.4292 50.7863C16.4292 50.7863 16.4292 50.7863 16.4292 50.7863C16.4292 50.7863 16.4292 50.7863 16.4292 50.7863C16.4292 50.7863 16.4292 50.7863 16.4292 50.7863V50.7863H16.4292H16.4292C16.4292 50.7863 16.4292 50.7863 16.4292 50.7863C16.4292 50.7863 16.4292 50.7863 16.4292 50.7863C16.4292 50.7863 16.4292 50.7863 16.4292 50.7863C16.4292 50.7863 16.4292 50.7863 16.4292 50.7863C16.4292 50.7863 16.4292 50.7863 16.4292 50.7863C16.4292 50.7863 16.4292 50.7863 16.4292 50.7863H16.4292H16.4292C16.4292 50.7863 16.4292 50.7863 16.4292 50.7863H16.4292C16.4292 50.7863 16.4292 50.7863 16.4292 50.7863C16.4292 50.7863 16.4292 50.7863 16.4292 50.7863C16.4292 50.7863 16.4292 50.7863 16.4292 50.7863C16.4292 50.7863 16.4292 50.7863 16.4292 50.7863C16.4292 50.7863 16.4292 50.7863 16.4292 50.7863C16.4292 50.7863 16.4292 50.7863 16.4292 50.7863H16.4292H16.4292V50.7863C16.4292 50.7863 16.4292 50.7863 16.4292 50.7863C16.4292 50.7863 16.4292 50.7863 16.4292 50.7863C16.4292 50.7863 16.4292 50.7863 16.4292 50.7863C16.4292 50.7863 16.4292 50.7863 16.4292 50.7863C16.4292 50.7863 16.4292 50.7863 16.4292 50.7863C16.4292 50.7863 16.4292 50.7863 16.4292 50.7863H16.4292H16.4292H16.4293C16.4293 50.7863 16.4293 50.7863 16.4293 50.7863L17.7798 49.3112ZM17.903 52.1371C18.6492 51.323 18.5943 50.0583 17.7805 49.3118L16.4286 50.7858L16.4286 50.7857L17.903 52.1371ZM15.0772 52.2601C15.8915 53.0065 17.1566 52.9514 17.903 52.1371L16.4286 50.7857L15.0772 52.2601ZM15.6914 50.1101L15.0157 50.8472L16.4901 52.1986L17.1658 51.4614L15.6914 50.1101ZM15.0775 52.2604C15.0594 52.2438 15.1929 52.3804 15.3999 52.4584C15.6439 52.5504 15.8681 52.5286 16.0205 52.4862C16.1522 52.4496 16.245 52.3943 16.2827 52.3707C16.3273 52.3429 16.3603 52.3172 16.3771 52.3038C16.4105 52.2771 16.4348 52.2541 16.4416 52.2476C16.4517 52.238 16.4595 52.2301 16.4633 52.2263C16.4711 52.2185 16.477 52.2122 16.4788 52.2104C16.4814 52.2076 16.4835 52.2054 16.4848 52.204C16.489 52.1995 16.494 52.194 16.499 52.1886C16.5103 52.1764 16.532 52.1527 16.5742 52.1067C16.6589 52.0144 16.828 51.83 17.1658 51.4614L15.6914 50.1101C15.3535 50.4787 15.1847 50.6628 15.1004 50.7547C15.0581 50.8008 15.0375 50.8232 15.0277 50.8339C15.0221 50.84 15.0218 50.8403 15.0233 50.8386C15.0239 50.838 15.0255 50.8363 15.0278 50.834C15.0292 50.8325 15.0349 50.8265 15.0424 50.8188C15.0461 50.8151 15.0539 50.8073 15.0639 50.7978C15.0707 50.7913 15.0949 50.7683 15.1283 50.7416C15.1451 50.7282 15.1781 50.7026 15.2227 50.6747C15.2604 50.6512 15.3532 50.5959 15.4849 50.5593C15.6373 50.5169 15.8615 50.4951 16.1054 50.587C16.3125 50.6651 16.446 50.8016 16.4278 50.7851L15.0775 52.2604ZM15.0762 52.2592L15.0765 52.2594L16.4289 50.786L16.4287 50.7858L15.0762 52.2592ZM15.0755 52.2586L15.0761 52.2591L16.4288 50.7859L16.4282 50.7854L15.0755 52.2586ZM15.0735 52.2567L15.0749 52.258L16.4289 50.786L16.4275 50.7847L15.0735 52.2567ZM15.0684 52.252L15.0723 52.2556L16.4288 50.7859L16.4249 50.7824L15.0684 52.252ZM15.0538 52.2385L15.0658 52.2496L16.4276 50.7848L16.4157 50.7737L15.0538 52.2385ZM15.005 52.1925C15.0244 52.2109 15.0402 52.2257 15.0523 52.237L16.4172 50.7752C16.4097 50.7682 16.3985 50.7577 16.3839 50.7437L15.005 52.1925ZM14.848 52.0397C14.9135 52.1046 14.9664 52.1556 15.005 52.1925L16.3839 50.7437C16.3546 50.7158 16.3113 50.6741 16.2555 50.6188L14.848 52.0397ZM14.3135 51.4848C14.5349 51.7242 14.7169 51.9099 14.848 52.0397L16.2555 50.6188C16.1439 50.5083 15.9822 50.3436 15.7819 50.127L14.3135 51.4848ZM12.6041 49.4165C13.2696 50.3111 13.8712 51.0065 14.3135 51.4848L15.7819 50.127C15.3814 49.6938 14.8264 49.0531 14.2088 48.2228L12.6041 49.4165ZM13.015 46.6181C12.1288 47.2774 11.9448 48.5303 12.6041 49.4165L14.2088 48.2228L13.015 46.6181Z" fill="#767676"/>
<path id="Shape Copy 6" d="M31.1368 24.2013C31.1368 26.5689 29.2174 28.4905 26.8476 28.4905C24.4821 28.4905 22.5583 26.5689 22.5583 24.2013" stroke="white" stroke-width="2" stroke-linecap="round" stroke-linejoin="round"/>
<path id="Shape Copy 5" d="M50.4382 24.2013C50.4382 26.5689 48.5187 28.4905 46.149 28.4905C43.7835 28.4905 41.8597 26.5689 41.8597 24.2013" stroke="white" stroke-width="2" stroke-linecap="round" stroke-linejoin="round"/>
<path id="Shape Copy 4" d="M45.0767 47.7919C45.0767 43.0566 41.2379 39.2135 36.4983 39.2135C31.7609 39.2135 27.9199 43.0566 27.9199 47.7919" stroke="white" stroke-width="2" stroke-linecap="round" stroke-linejoin="round"/>
<path id="Shape_2" d="M30.2082 23.2727C30.2082 25.6404 28.2888 27.5619 25.919 27.5619C23.5535 27.5619 21.6298 25.6404 21.6298 23.2727" stroke="#767676" stroke-width="2" stroke-linecap="round" stroke-linejoin="round"/>
<path id="Shape_3" d="M49.5097 23.2727C49.5097 25.6404 47.5903 27.5619 45.2205 27.5619C42.855 27.5619 40.9313 25.6404 40.9313 23.2727" stroke="#767676" stroke-width="2" stroke-linecap="round" stroke-linejoin="round"/>
<path id="Shape_4" d="M44.1481 46.8634C44.1481 42.1281 40.3093 38.285 35.5697 38.285C30.8323 38.285 26.9913 42.1281 26.9913 46.8634" stroke="#767676" stroke-width="2" stroke-linecap="round" stroke-linejoin="round"/>
</g>
</g>
</g>
</svg>
