<svg xmlns="http://www.w3.org/2000/svg" width="130" height="26" viewBox="0 0 130 26">
    <g fill="none" fill-rule="evenodd">
        <path fill="#00613C" d="M0 12.838C0 5.753 5.739.006 12.822 0v4.639a8.197 8.197 0 0 0-8.185 8.2 8.203 8.203 0 0 0 8.203 8.204c4.5 0 8.2-3.639 8.2-8.235l4.638.005c0 7.118-5.745 12.868-12.838 12.868C5.745 25.681 0 19.931 0 12.838"/>
        <path fill="#4EAF46" d="M7.174 12.838a5.696 5.696 0 0 1 11.39 0 5.696 5.696 0 0 1-11.39 0"/>
        <path fill="#00613C" d="M16.82 5.625a3.263 3.263 0 0 1 3.262-3.264 3.265 3.265 0 1 1-3.263 3.264"/>
        <path fill="#4EAF46" d="M117.086 8.857l-.397 1.949c-.93 4.238-1.276 5.603-2.083 9.816l-.179.153-2.568.074-.127-.174 1.035-4.341.303-1.422a153.785 153.785 0 0 0-3.312-.043c-.862 0-1.519.01-2.19.029a186.282 186.282 0 0 0-1.177 5.724l-.18.153-2.572.074-.126-.174 1.034-4.341.407-1.891c.679-2.978.806-3.632 1.21-6.381l.178-.175c1.18-.154 1.46-.203 2.67-.455l.13.175-.275 1.25-.392 1.949-.41 1.844c.926.023 1.853.038 2.785.038.983 0 1.63-.02 2.724-.04.354-1.614.496-2.495.805-4.586l.178-.175c1.184-.154 1.46-.203 2.673-.455l.125.175-.27 1.25M88.746 15.31c-.558 2.185-2.107 5.96-6.87 5.96-3.37 0-5.222-1.75-5.222-5.198 0-.445.035-.941.11-1.461l.052-.387c.918-5.712 3.394-11.126 8.825-11.18.723-.01 2.193-.084 3.192-.32l-.363 2.281c-1.007.258-2.6.393-3.53.398-1.153.013-1.95.452-2.504.981-.274.262-.488.55-.652.812-.163.26-.284.498-.37.677a8.004 8.004 0 0 1 2.414-.37c3.318 0 5.297 1.852 5.297 5.12 0 .887-.151 1.8-.38 2.687m-2.636-.786c.178-.734.303-1.467.303-2.177 0-2.56-1.647-2.992-2.584-2.992-3.98 0-4.487 6.183-4.487 7.12 0 2.03 1.216 2.916 2.588 2.916 2.71 0 3.724-2.786 4.18-4.867M121.434 12.973c.604-.525.955-.854 1.785-1.658.882-.858 3.027-3.077 3.43-3.507l.277-.15h2.903l.074.23c-.252.224-.38.326-1.39 1.182-.404.331-.652.582-1.13 1.01l-3.282 3.026 3.911 7.444-.15.198-2.802.079-.203-.152c-.656-1.567-.83-1.915-1.737-3.76l-1.767-3.582a205.112 205.112 0 0 0-1.523 7.29l-.175.152-2.574.074-.124-.174 1.034-4.341.404-1.891c.679-2.978.805-3.632 1.208-6.381l.178-.175c1.187-.154 1.461-.203 2.674-.455l.127.175-.271 1.25-.395 1.949-.482 2.167M103.962 7.706l-.127-.202-3.499-.024c-2.33 0-5.598.15-7.957 2.912-1.064 1.262-2.026 3.437-2.026 5.433 0 3.16 2.104 4.985 4.688 4.985 2.151 0 3.27-.937 3.7-1.29l-.177 1.01.125.181 2.381-.052.181-.178c.504-3.013.685-3.971 1.571-7.868l1.14-4.907zm-4.843 9.866c-.278.222-.555.48-.836.653-.656.405-1.519.584-2.202.584-2.308 0-2.966-1.947-2.966-3.16 0-.125.05-3.39 2.71-5.206 1.497-1.012 3.145-1.062 3.98-1.062.38 0 .758.023 1.14.023l-1.826 8.168z"/>
        <path fill="#00613C" d="M38.074 18.397c1.931 0 2.833-2.012 3.42-4.601.412-1.823.859-4.496-1.468-4.496-1.985 0-2.863 1.904-3.448 4.496-.547 2.405-.671 4.6 1.496 4.6zm-.897 2.803c-2.748 0-6.703-.872-5.27-7.219.536-2.382 2.182-7.43 8.951-7.43 6.582 0 5.603 5.395 5.198 7.299-1.214 5.365-4.49 7.35-8.88 7.35zM53.27 20.882c-1.272 0-3.36 0-4.236.027l-.15-.157c.243-.848.838-3.121 1.466-5.899.505-2.248.956-4.228 1.132-5.13-1.064.025-2.702.025-3.502.054l-.145-.186c.211-.686.508-1.873.693-2.587l.243-.136c.707.027 3.399.054 5.564.054 2.62 0 5.169-.054 5.703-.081l.18.136c-.194.63-.538 1.928-.714 2.588l-.251.158c-1.046-.024-1.84-.024-3.353-.024-.13.577-.539 2.274-1.22 5.286a166.819 166.819 0 0 0-1.179 5.685l-.231.212M67.961 10.04c-.85 0-1.804.025-2.229.025-.131.584-.648 2.753-1.124 4.866a275.733 275.733 0 0 0-1.255 5.79l-.25.161c-1.294 0-2.959 0-4.29.027l-.145-.157c.273-1.087.966-4.045 1.631-6.983.668-2.958 1.246-5.868 1.434-6.689l.222-.185c1.43 0 2.87.054 6.414.054 2.776 0 5.465-.081 6.9-.108l.12.163c-.186.714-.983 4.122-1.747 7.504a247.943 247.943 0 0 0-1.327 6.213l-.195.161c-1.137 0-3.225 0-4.314.027l-.117-.188c.233-.923.743-3.063 1.343-5.71.453-2.01.911-4.15 1.092-4.946-.425 0-1.368-.025-2.163-.025"/>
    </g>
</svg>
