<svg width="152" height="152" viewBox="0 0 152 152" fill="none" xmlns="http://www.w3.org/2000/svg">
<mask id="mask0" mask-type="alpha" maskUnits="userSpaceOnUse" x="0" y="0" width="152" height="152">
<circle cx="76" cy="76" r="76" fill="#C4C4C4"/>
</mask>
<g mask="url(#mask0)">
<path d="M114.524 44.1523L94.4635 41.6526L98.2577 30.2521L118.581 32.8655L114.524 44.1523Z" fill="#FFB3BC"/>
<path d="M112.115 55.8578L92.271 53.3012L94.352 41.226L114.196 43.8219L112.115 55.8578Z" fill="#FFC7CE"/>
<path d="M118.827 47.2415C118.607 46.4534 118.255 45.1399 117.858 44.4832C117.462 43.7826 116.537 41.8124 115.48 40.893C113.983 39.6233 112.001 38.1784 111.428 39.0541C110.988 39.7108 112.705 40.6741 113.322 41.1119C114.159 41.6811 115.348 42.7319 115.832 44.4832C115.568 43.5637 113.983 42.4254 112.793 41.6373C111.957 41.1119 110.283 40.1924 109.931 41.1119C109.622 41.9 110.855 42.3378 111.604 42.7756C114.555 44.527 114.952 46.0594 114.952 46.0594L113.983 45.4026L113.718 46.6285L114.291 47.4166L113.63 47.3291L113.41 48.5112C113.41 48.5112 113.674 49.7809 114.027 50.8317C114.335 51.8825 114.203 53.2835 114.819 54.203C118.431 55.0349 119.84 51.0944 118.827 47.2415Z" fill="#FAAB96"/>
<path d="M103.588 98.3801C104.822 99.4309 106.099 100.525 107.552 100.657C109.358 100.788 111.076 99.3871 112.485 97.6796C113.718 96.1472 114.863 94.2207 115.084 91.944C115.304 89.4484 114.335 87.0403 112.97 85.4641C111.648 83.8879 109.975 82.9247 108.433 81.9177C103.5 78.634 99.0518 74.2119 94.7356 69.5709C95.6165 70.4466 90.6836 83.4063 91.6526 86.5149C92.4013 88.9668 95.176 90.6305 96.6295 92.0316C98.9197 94.1769 101.21 96.3223 103.588 98.3801Z" fill="#FAAB96"/>
<path d="M118.211 47.4606C118.519 49.2119 118.915 48.8178 118.827 50.6567C118.783 51.6637 117.902 58.275 117.682 59.5009C117.638 59.6322 117.242 78.1524 114.643 94.2208C113.586 94.4397 112.485 94.7024 111.428 94.7462C108.345 94.7462 105.658 92.6446 102.84 90.9808C103.368 88.3101 103.544 85.5955 104.513 83.0561C108.785 72.1979 113.19 61.7338 114.115 51.4448C114.159 48.7303 117.902 45.7092 118.211 47.4606Z" fill="#FAAB96"/>
<path d="M93.3262 35.7267C93.106 38.7039 92.5334 41.2871 91.5204 43.4763C91.5204 43.5201 91.5204 43.5201 91.5204 43.5201C88.8778 49.6497 83.5046 53.1961 76.9421 53.8528C69.5428 54.6409 62.584 52.6269 58.6201 45.1838C56.9024 42.0314 55.6692 38.3537 55.3168 34.3694C54.8323 30.6917 54.3919 26.7074 57.4309 24.5183C60.5139 22.3729 64.7861 21.1032 68.3977 20.1837C73.7269 18.914 79.2323 18.6076 84.6497 19.2643C85.0901 19.3081 85.4425 19.3519 85.8389 19.4394C88.4815 19.8773 89.8027 19.921 91.1681 22.0226C92.6215 24.1242 92.9739 27.7144 93.2381 30.21C93.4583 32.0927 93.5464 33.9316 93.3262 35.7267Z" fill="#FAAB96"/>
<path d="M79.1883 41.9001H65.4468V61.1209H79.1883V41.9001Z" fill="#FAAB96"/>
<path d="M96.4092 112.741C96.9378 105.779 96.189 98.8617 95.8367 91.944C95.3082 81.655 94.7356 71.366 93.0179 61.2083C89.5825 59.5008 84.4295 58.7565 75.4446 58.7565C64.0814 58.7565 52.0135 60.8143 42.9406 68.126C39.4612 70.9281 39.5493 80.0788 42.8085 88.9229C44.1738 92.6445 47.3449 98.993 47.3449 96.7601C47.6092 114.536 50.7363 123.687 53.5991 141.244C67.5608 140.543 80.2013 139.23 93.9428 138.441C94.7796 129.904 95.7486 121.322 96.4092 112.741Z" fill="#FAAB96"/>
<path d="M97.3868 117.312C97.651 130.49 104.117 147.461 103.236 152.715C92.7977 156.261 80.4655 156.568 68.2215 155.648C67.2966 155.561 66.3717 155.517 65.4468 155.429C57.2987 154.729 49.2388 153.547 41.9276 152.54C48.0556 138.894 50.9789 131.943 49.5172 116.214C48.7864 112.172 43.5572 114.448 45.0987 112.172C42.324 116.243 34.2641 74.9123 38.228 71.6286C42.28 68.2135 46.0236 65.1925 53.0265 62.4342C58.576 70.7529 65.1385 72.1102 74.6078 71.8913C78.0432 71.8037 81.5666 71.2783 84.5616 69.527C87.9529 67.6006 90.4634 64.0542 89.9349 60.1575C91.2562 60.3326 92.4894 60.5515 93.6786 60.9018C94.5594 61.2083 95.3962 61.5147 96.189 61.9526C98.2591 62.9596 99.9447 63.9053 102.868 66.1001C105.791 68.2949 109.08 71.2212 109.08 71.2212L105.791 80.0004C107.007 93.7772 97.1906 107.526 97.3868 117.312Z" fill="#CBE7C1"/>
<path d="M51.7097 125.359C51.7097 118.131 50.204 105.051 50.2481 99.7534C43.768 99.7534 49.2886 123.756 48.421 129.017C47.0416 138.159 45.8631 137.065 41.9717 152.496C44.3941 152.846 46.8605 153.196 49.415 153.547C50.2481 147.307 51.7097 137.083 51.7097 125.359Z" fill="#A2CF92"/>
<path d="M72.2295 35.9018C72.1414 35.9018 72.0533 35.8581 71.9652 35.8143C71.745 35.6829 71.701 35.3764 71.8331 35.1575C72.4057 34.3256 73.4187 33.8003 74.4317 33.7565C75.4447 33.7565 76.4577 34.2381 77.0743 35.0262C77.2504 35.2451 77.2064 35.5516 76.9862 35.7267C76.766 35.9018 76.4577 35.8581 76.2815 35.6391C75.8411 35.07 75.1804 34.7635 74.4757 34.7635H74.4317C73.727 34.7635 73.0223 35.1575 72.6259 35.7267C72.5819 35.8581 72.4057 35.9018 72.2295 35.9018Z" fill="#472D2B"/>
<path d="M85.3544 35.9018C85.2663 35.9018 85.1782 35.858 85.0901 35.8142C84.8699 35.6391 84.8259 35.3326 84.958 35.1137C85.5306 34.2818 86.5436 33.7564 87.5565 33.7126C88.5695 33.7126 89.5825 34.1943 90.1992 34.9824C90.3753 35.2013 90.3313 35.5077 90.1111 35.6829C89.8908 35.858 89.5825 35.8142 89.4064 35.5953C88.9659 35.0261 88.3053 34.7197 87.6006 34.7197H87.5565C86.8519 34.7197 86.1472 35.1137 85.7508 35.6829C85.6627 35.858 85.4865 35.9018 85.3544 35.9018Z" fill="#472D2B"/>
<path d="M84.8699 42.9508C84.1212 44.3956 82.6678 45.4027 80.906 45.4027C79.1443 45.4027 77.6909 44.3956 76.9421 42.9508H84.8699Z" fill="#F5ECED"/>
<path d="M55.7294 63.1738C55.7294 63.1738 55.364 71.5871 72.5385 71.5871C89.7131 71.5871 89.7131 59.8816 89.7131 59.8816L91.5402 60.2474C91.5402 60.2474 90.8094 73.416 72.5385 73.416C54.2677 73.416 54.2677 63.5396 54.2677 63.5396L55.7294 63.1738Z" fill="#A2CF92"/>
<path d="M87.6006 19.7458C87.3363 19.5269 83.5486 25.7003 83.1082 26.0505C82.9761 26.1819 82.7999 26.2694 82.6237 26.3132C82.3595 26.3132 82.1392 26.1819 81.919 26.0943C80.862 25.7003 79.9371 26.8386 79.4966 27.8894C79.1002 28.8964 78.6598 30.1661 77.5587 30.4288C76.81 30.604 76.0612 30.1661 75.3125 30.1223C74.2555 30.0348 73.2425 30.6477 72.4497 31.392C71.6569 32.0488 70.9522 32.8807 70.0273 33.4498C68.8381 34.1504 67.1645 34.019 66.0194 33.2747C65.2706 32.7931 64.7862 31.7861 63.9053 31.8299C63.597 31.8299 63.1565 31.9174 62.8042 32.005C61.7031 32.3115 60.7782 33.1434 60.1616 34.0628C59.2367 35.3763 59.501 37.4341 60.2937 38.7914C61.1306 40.1924 62.7161 41.0243 64.3017 41.1556C66.68 51.7511 68.5189 65.8492 61.576 71.2213C54.9985 68.2949 57.8713 65.7179 55.6692 65.8492C53.2908 65.9806 51.8815 68.7389 49.8555 69.9648C47.9176 71.147 45.9356 70.8843 44.262 72.3291C43.1168 70.0086 41.9277 67.4692 42.4562 64.9736C42.5443 64.5357 42.6764 64.1417 42.6764 63.7039C42.6764 63.3098 42.5002 62.9158 42.3681 62.5217C41.267 59.8948 40.3861 58.231 41.267 55.5165C42.1038 52.8895 41.9717 51.0944 41.7074 48.2923C41.5753 47.2415 41.4872 46.1469 41.7515 45.1399C42.1479 43.8264 43.1168 42.7318 43.5132 41.4183C44.1298 39.4043 43.4251 37.1714 44.0858 35.2012C44.6583 33.4498 46.2439 32.1364 46.7284 30.3413C47.4771 27.7581 45.8035 24.7808 46.9926 22.329C47.4771 21.322 48.358 20.5777 48.9746 19.6582C50.2519 17.6004 49.9435 14.7983 51.441 12.8719C52.7183 11.2081 54.9645 10.7265 56.9024 9.80705C59.4129 8.62491 61.4829 6.56711 63.8612 5.07849C66.2836 3.54609 69.719 2.80178 72.5818 2.4953C74.0353 2.32016 75.4006 2.4953 76.6779 3.19582C77.6468 3.765 78.1753 5.07849 79.4966 5.03471C79.9371 5.03471 80.3775 4.81579 80.8179 4.72823C83.1522 4.42175 84.1212 8.09951 86.4114 8.53734C86.984 8.62491 87.6006 8.53734 88.0851 8.80004C89.3623 9.413 89.01 11.3832 89.8028 12.5654C90.1551 13.0908 90.7717 13.441 91.3003 13.8351C94.4714 16.1118 96.9818 24.6057 92.7537 27.2327C91.4324 24.2116 90.2873 22.0225 87.6006 19.7458Z" fill="#2E354E"/>
<path d="M81.9393 103.091C69.332 110.025 60.9305 115.078 47.1501 118.93C48.0525 111.091 49.4965 101.062 50.6035 92.0468C43.5618 91.246 39.8909 91.8112 32.9764 93.1331C31.7051 102.238 31.577 111.589 32.7429 120.762C33.0528 123.253 33.4918 125.822 34.9164 127.851C37.1422 131.015 41.2136 132.061 44.9616 132.369C63.6193 133.953 81.1855 117.766 87.2861 106.63C86.0375 104.803 83.2717 104.915 81.9393 103.091Z" fill="#FAAB96"/>
<path d="M37.5199 72.504C35.4144 74.4247 34.0698 78.5677 33.3739 81.0991C31.7157 86.8402 30.6072 92.6843 30.0067 98.633C36.8526 96.6464 48.7184 98.4209 56.2043 99.8296C53.059 87.3564 46.4472 76.358 37.5199 72.504Z" fill="#CBE7C1"/>
<path d="M97.3987 101.383L89.6177 102.031C87.6934 102.192 86.3945 100.158 87.4204 98.5314L99.7002 80.3045C100.092 79.6211 100.832 79.2158 101.586 79.1854L108.794 78.8947C110.679 78.8187 111.896 80.8974 110.827 82.4843L99.0767 100.314C98.7247 100.954 98.0675 101.315 97.3987 101.383Z" fill="#13114C"/>
<path d="M85.2899 108.172C87.179 108.179 89.7319 107.993 91.6713 107.164C94.2293 106.059 96.3666 103.887 97.0925 103.148C98.0999 102.106 99.2213 101.811 99.7695 100.829C100.319 99.8891 100.584 99.1691 101.231 98.5589C102.121 97.7303 102.735 96.2871 102.326 95.5108C100.648 96.5798 97.0661 97.2666 95.0999 97.4294C93.5947 97.5735 91.776 97.2296 91.2179 95.8753C91.0302 95.3822 91.0102 94.8824 90.8644 94.3876C90.7186 93.8928 90.3214 93.4082 89.8168 93.3868C89.5654 93.397 89.3592 93.4887 89.153 93.5805C87.75 94.1794 86.3051 94.7801 85.2138 95.8254C84.5248 96.4372 84.0102 97.209 83.41 97.9424C80.0791 101.748 80.1691 108.17 85.2899 108.172Z" fill="#FAAB96"/>
</g>
</svg>
