<svg xmlns="http://www.w3.org/2000/svg" width="62" height="65" fill="none" viewBox="0 0 62 65">
    <path fill="#52AE30" d="M15.228 37.871l-.301-.953.301.953zm-4.54 1.434l.3.954-.3-.954zm-.603-1.907l-.3-.954.3.954zm4.54-1.434l-.3-.953.3.953zm6.676-.01l.301.953-.3-.953zm.653-1.255l.953-.301-.953.3zm-2.713 1.905l.301.954-.301-.954zm-1.255-.652l.954-.301-.954.3zm.653-1.255l-.302-.954.302.954zm2.06-.65L21 35l-.301-.954zm-5.17 4.778a2 2 0 0 0 1.305-2.51l-1.907.603.602 1.907zm-4.54 1.434l4.54-1.434-.602-1.907-4.54 1.434.602 1.907zM4 49.795a10 10 0 0 1 6.989-9.536l-.603-1.907A12 12 0 0 0 2 49.795h2zm0 2.842v-2.842H2v2.842h2zm-2 2a2 2 0 0 0 2-2H2v2zm-2-2a2 2 0 0 0 2 2v-2H0zm0-2.842v2.842h2v-2.842H0zm9.784-13.35A14 14 0 0 0 0 49.794h2a12 12 0 0 1 8.386-11.443l-.602-1.907zm4.54-1.434l-4.54 1.433.602 1.908 4.541-1.434-.602-1.907zm2.51 1.304a2 2 0 0 0-2.51-1.304l.603 1.907 1.907-.602zm4.768.592a2 2 0 0 0 1.305-2.51L21 35l.602 1.907zm-2.06.65l2.06-.65L21 35l-2.06.65.602 1.908zm-2.51-1.304a2 2 0 0 0 2.51 1.305l-.602-1.907-1.907.602zm1.305-2.51a2 2 0 0 0-1.304 2.51l1.907-.602-.603-1.908zm2.06-.65l-2.06.65.603 1.908L21 35l-.602-1.907zm2.51 1.305a2 2 0 0 0-2.51-1.305L21 35l1.907-.602z" opacity=".5"/>
    <path stroke="#52AE30" stroke-linecap="round" stroke-linejoin="round" stroke-width="2" d="M32 34c-7.58 0-14-7.904-14-17S24.49 1 32 1s14 6.904 14 16-6.42 17-14 17z" clip-rule="evenodd"/>
    <path fill="#fff" stroke="#52AE30" stroke-width="2" d="M43 58h14v4H43zM43 54h14v4H43zM43 50h14v4H43zM45 46h14v4H45zM43 42h14v4H43zM43 38h14v4H43z"/>
    <path fill="#52AE30" fill-opacity=".3" fill-rule="evenodd" d="M46 51h2v-4h-2v-8h14v8h2v6h-2v12H46V51zM40 65H9V51.13a7 7 0 0 1 4.892-6.675L28 40v-4s7 2 12-2v31z" clip-rule="evenodd"/>
    <path stroke="#52AE30" stroke-linecap="round" stroke-linejoin="round" stroke-width="2" d="M36.95 62H6V51c0-4.19 2.069-7.552 6-9l13-4v-6"/>
    <path stroke="#52AE30" stroke-linejoin="round" stroke-width="2" d="M46 15s-7 2-10-6c-6 10-16.317 5.878-18 5"/>
    <path fill="#52AE30" fill-opacity=".3" fill-rule="evenodd" d="M47 18s-7 2-10-6c-5.408 9.014-15 7-18 5 1-4 5-13 14-13 10 0 14 11 14 14z" clip-rule="evenodd"/>
    <path stroke="#52AE30" stroke-linecap="round" stroke-width="2" d="M38 33v4M32 47v15M17 57v5"/>
</svg>
