<svg xmlns="http://www.w3.org/2000/svg" width="57" height="43" fill="none" viewBox="0 0 57 43">
    <path fill="#52AE30" fill-rule="evenodd" d="M56 35a8 8 0 0 1-8 8H23a8 8 0 0 1-8-8V19a8 8 0 0 1 8-8h25a8 8 0 0 1 8 8v16z" clip-rule="evenodd" opacity=".3"/>
    <path fill="#52AE30" fill-rule="evenodd" d="M4 31H2v2H0v2h2v2h2v-2h2v-2H4v-2zM55 1h-2v2h-2v2h2v2h2V5h2V3h-2V1z" clip-rule="evenodd" opacity=".5"/>
    <path fill="#52AE30" d="M7 19a2 2 0 0 0-2-2v2h2zm0 2v-2H5v2h2zm-2 2a2 2 0 0 0 2-2H5v2zm-2-2a2 2 0 0 0 2 2v-2H3zm0-2v2h2v-2H3zm2-2a2 2 0 0 0-2 2h2v-2zm2-7a6 6 0 0 1 6-6V2a8 8 0 0 0-8 8h2zm0 6v-6H5v6h2zm-2 2a2 2 0 0 0 2-2H5v2zm-2-2a2 2 0 0 0 2 2v-2H3zm0-6v6h2v-6H3zM13 0C7.477 0 3 4.477 3 10h2a8 8 0 0 1 8-8V0zm25.293 0H13v2h25.293V0zm2 2a2 2 0 0 0-2-2v2h2zm-2 2a2 2 0 0 0 2-2h-2v2zM13 4h25.293V2H13v2z" opacity=".5"/>
    <path fill-rule="evenodd" stroke="#52AE30" stroke-linecap="round" stroke-linejoin="round" stroke-width="2" d="M50 28a8 8 0 0 1-8 8H19a8 8 0 0 1-8-8V16a8 8 0 0 1 8-8h23a8 8 0 0 1 8 8v12z" clip-rule="evenodd"/>
    <path stroke="#52AE30" stroke-linecap="round" stroke-linejoin="round" stroke-width="2" d="M12 14.5h14M36 14.5h14M18 20.5h-1M18 25.5h-1"/>
    <path fill="#fff" fill-rule="evenodd" stroke="#52AE30" stroke-width="2" d="M30.5 30a8.5 8.5 0 1 0 0-17 8.5 8.5 0 0 0 0 17z" clip-rule="evenodd"/>
</svg>
