<?xml version="1.0" ?><svg viewBox="0 0 24 24" xmlns="http://www.w3.org/2000/svg"><title/><g data-name="Power Point" id="Power_Point"><path d="M23.5,3H14V.5A.5.5,0,0,0,13.41,0l-13,2.5A.5.5,0,0,0,0,3V21a.5.5,0,0,0,.41.49l13,2.5h.09a.5.5,0,0,0,.5-.5V21h9.5a.5.5,0,0,0,.5-.5V3.5A.5.5,0,0,0,23.5,3ZM6.5,13H6v2.5a.5.5,0,0,1-1,0v-7A.5.5,0,0,1,5.5,8h1a2.5,2.5,0,0,1,0,5ZM23,20H14V18.5h7.5a.5.5,0,0,0,0-1H14v-2h7.5a.5.5,0,0,0,0-1H14V11.94a3.48,3.48,0,0,0,5.79-1.27.5.5,0,0,0-.47-.67H17.5A1.5,1.5,0,0,1,16,8.5V6.68a.5.5,0,0,0-.67-.47A3.51,3.51,0,0,0,14,7.07V4h9Z" style="fill:#303c42"/><path d="M17.5,9h3a.5.5,0,0,0,.5-.5A3.5,3.5,0,0,0,17.5,5a.5.5,0,0,0-.5.5v3A.5.5,0,0,0,17.5,9Z" style="fill:#303c42"/><path d="M6.5,9H6v3h.5a1.5,1.5,0,0,0,0-3Z" style="fill:#303c42"/></g></svg>