<?xml version="1.0" ?><svg viewBox="0 0 24 24" xmlns="http://www.w3.org/2000/svg"><title/><g id="Word"><path d="M23.5,3H14V.5A.5.5,0,0,0,13.41,0l-13,2.5A.5.5,0,0,0,0,3V21a.5.5,0,0,0,.41.49l13,2.5h.09a.5.5,0,0,0,.5-.5V21h9.5a.5.5,0,0,0,.5-.5V3.5A.5.5,0,0,0,23.5,3ZM11,8.13l-2,7.5A.5.5,0,0,1,8.5,16h0A.5.5,0,0,1,8,15.64L6.48,10.26,5,15.15a.46.46,0,0,1-.49.35A.5.5,0,0,1,4,15.12l-1.5-6a.5.5,0,0,1,1-.24l1.06,4.26L6,8.35A.59.59,0,0,1,6.5,8,.5.5,0,0,1,7,8.36l1.5,5.26L10,7.87a.5.5,0,0,1,1,.26ZM23,20H14V18.5h7.5a.5.5,0,0,0,0-1H14v-2h7.5a.5.5,0,0,0,0-1H14v-2h7.5a.5.5,0,0,0,0-1H14v-2h7.5a.5.5,0,0,0,0-1H14v-2h7.5a.5.5,0,0,0,0-1H14V4h9Z" style="fill:#303c42"/></g></svg>