<svg width="290" height="400" viewBox="0 0 290 400" fill="none" xmlns="http://www.w3.org/2000/svg">
<path fill-rule="evenodd" clip-rule="evenodd" d="M280 2H10C5.58172 2 2 5.58172 2 9.99999V198H288V10C288 5.58172 284.418 2 280 2ZM2 390V200H288V390C288 394.418 284.418 398 280 398H10C5.58173 398 2 394.418 2 390ZM10 0C4.47715 0 0 4.47714 0 9.99999V390C0 395.523 4.47716 400 10 400H280C285.523 400 290 395.523 290 390V10C290 4.47715 285.523 0 280 0H10ZM28 21H127V184H28V21ZM26 19H28H127H129V21V184V186H127H28H26V184V21V19Z" fill="white"/>
</svg>
