<svg width="290" height="400" viewBox="0 0 290 400" fill="none" xmlns="http://www.w3.org/2000/svg">
<path fill-rule="evenodd" clip-rule="evenodd" d="M10 2H280C284.418 2 288 5.58172 288 10V198H2V9.99999C2 5.58172 5.58172 2 10 2ZM2 200V390C2 394.418 5.58173 398 10 398H280C284.418 398 288 394.418 288 390V200H2ZM0 9.99999C0 4.47714 4.47715 0 10 0H280C285.523 0 290 4.47715 290 10V390C290 395.523 285.523 400 280 400H10C4.47716 400 0 395.523 0 390V9.99999ZM95 233H19V316.723C27.8685 311.904 34.1416 310.509 38.0562 309.639L38.2748 309.59C39.3373 309.354 40.1646 309.164 40.8164 308.955C41.4764 308.744 41.841 308.546 42.0465 308.356C42.3159 308.107 42.5692 307.632 42.0385 305.775C41.5943 304.22 40.76 303.003 39.6484 301.575C39.4698 301.346 39.2841 301.111 39.0927 300.869C38.1057 299.621 36.9684 298.183 35.8849 296.314C33.2703 291.804 31 284.865 31 271.5C31 258.057 34.9409 250.81 40.362 246.995C45.7084 243.232 52.2557 243 57 243C61.9097 243 67.6908 244.291 72.2482 248.585C76.8194 252.891 80 260.066 80 271.5C80 282.849 78.4851 289.342 76.7519 294.093C76.14 295.77 75.4957 297.24 74.9026 298.593L74.9022 298.594C74.6669 299.131 74.4396 299.65 74.2257 300.155C73.4645 301.954 72.8408 303.656 72.4848 305.674C72.3296 306.553 72.3646 307.119 72.4832 307.496C72.5913 307.84 72.7902 308.099 73.1443 308.334C73.5279 308.588 74.0842 308.807 74.8813 309.022C75.6124 309.219 76.4712 309.394 77.4904 309.601L77.4908 309.601L77.7532 309.655C81.817 310.483 87.7568 311.763 95 316.419V233ZM97 317.769V233V231H95H19H17V233V317.843C16.8325 317.94 16.6641 318.038 16.4948 318.137L17 319V339V341H19H95H97V339V319L97.5882 318.191C97.3913 318.048 97.1952 317.907 97 317.769ZM95 318.816C87.5669 313.767 81.5193 312.463 77.3538 311.614L77.0757 311.558C76.0772 311.355 75.1561 311.167 74.3612 310.953C73.4971 310.72 72.6929 310.434 72.0386 310C71.3547 309.546 70.8383 308.933 70.5753 308.096C70.3228 307.293 70.3311 306.37 70.5152 305.326C70.9092 303.094 71.598 301.233 72.3837 299.376C72.6158 298.827 72.8539 298.284 73.0953 297.733C73.6796 296.401 74.284 295.022 74.8731 293.407C76.5149 288.908 78 282.651 78 271.5C78 260.434 74.9306 253.859 70.8768 250.04C66.8092 246.209 61.5903 245 57 245C52.2443 245 46.2916 245.268 41.513 248.63C36.8091 251.94 33 258.443 33 271.5C33 284.635 35.2297 291.196 37.6151 295.311C38.6204 297.045 39.6591 298.359 40.6431 299.605L40.6441 299.606C40.8407 299.855 41.0351 300.101 41.2266 300.347C42.365 301.809 43.4057 303.28 43.9615 305.225C44.5036 307.123 44.6059 308.713 43.4045 309.824C42.8747 310.314 42.174 310.621 41.4268 310.86C40.6715 311.102 39.7498 311.311 38.7094 311.542L38.4772 311.594C34.5046 312.477 28.1311 313.894 19 319.007V339H95V318.816Z" fill="white"/>
</svg>
