<svg width="24" height="24" viewBox="0 0 24 24" fill="none" xmlns="http://www.w3.org/2000/svg">
<path fill-rule="evenodd" clip-rule="evenodd" d="M10 3H22C23.104 3 24 3.896 24 5V15C24 16.103 23.104 17 22 17H18.618L17.448 19.341C16.937 20.365 15.909 21 14.764 21H8C7.734 21 7.48 20.894 7.293 20.708L5.46 18.874C5.32 18.948 5.169 19 5 19H1C0.447 19 0 18.552 0 18V10C0 9.448 0.447 9 1 9H5C5.169 9 5.32 9.051 5.46 9.126L7.293 7.294C7.48 7.104 7.734 7 8 7H13C13.553 7 14 7.448 14 8V10C14 11.654 12.654 13 11 13H9V11H11C11.551 11 12 10.551 12 10V9H8.414L6 11.414V16.586L8.414 19H14.764C15.146 19 15.488 18.79 15.658 18.448L16.382 17H10C8.896 17 8 16.103 8 15V14H10V15H22V9H15V7H22V5H10V6H8V5C8 3.896 8.896 3 10 3ZM2 17H4V11H2V17Z" fill="#9E9E9E"/>
</svg>
