<svg xmlns="http://www.w3.org/2000/svg" width="21" height="20" fill="none" viewBox="0 0 21 20">
    <path fill="#52AE30" d="M14 17.382l-2.553-1.277a1.002 1.002 0 0 0-1.002.063L8 17.798l-2.445-1.63a1.004 1.004 0 0 0-1.002-.063L2 17.382V2.619l2.553 1.274a1 1 0 0 0 1.002-.062L8 2.202l2.445 1.63a1 1 0 0 0 1.002.062L14 2.619v3.38h2V1a1 1 0 0 0-1.448-.895l-3.48 1.742L8.554.168a1 1 0 0 0-1.11 0L4.929 1.847 1.448.105A1 1 0 0 0 0 1v18a1 1 0 0 0 1.448.894l3.48-1.74 2.518 1.678a1 1 0 0 0 1.109 0l2.518-1.678 3.48 1.74a.992.992 0 0 0 .972-.042c.295-.184.475-.505.475-.852v-4h-2v2.382z"/>
    <path fill="#52AE30" d="M13 8.586L11.586 10 15 13.414 20.414 8 19 6.586l-4 4-2-2zM4 6h5v2H4zM4 9h4v2H4zM4 12h6v2H4z"/>
</svg>
