<svg width="20" height="20" viewBox="0 0 20 20" fill="none" xmlns="http://www.w3.org/2000/svg">
<path d="M6.25098 15C6.25098 12.699 7.69998 11.25 10.001 11.25C12.302 11.25 13.751 12.699 13.751 15H6.25098Z" fill="#9E9E9E"/>
<path d="M10.001 10C11.3817 10 12.501 8.88071 12.501 7.5C12.501 6.11929 11.3817 5 10.001 5C8.62026 5 7.50098 6.11929 7.50098 7.5C7.50098 8.88071 8.62026 10 10.001 10Z" fill="#9E9E9E"/>
<path d="M18.001 20H14.001V18H18.001V14H20.001V18C20.001 19.103 19.104 20 18.001 20Z" fill="#9E9E9E"/>
<path d="M20.001 6H18.001V2H14.001V0H18.001C19.104 0 20.001 0.896 20.001 2V6Z" fill="#9E9E9E"/>
<path d="M2.00098 6H0.000976562V2C0.000976562 0.896 0.897977 0 2.00098 0H6.00098V2H2.00098V6Z" fill="#9E9E9E"/>
<path d="M6.00098 20H2.00098C0.897977 20 0.000976562 19.103 0.000976562 18V14H2.00098V18H6.00098V20Z" fill="#9E9E9E"/>
</svg>
