<svg xmlns="http://www.w3.org/2000/svg" width="14" height="20" viewBox="0 0 14 20">
    <g fill="none" fill-rule="evenodd">
        <path d="M-5-2h24v24H-5z"/>
        <g fill="#52AE30" fill-rule="nonzero">
            <path d="M14 3.171V1a1 1 0 0 0-1-1H1a1 1 0 0 0-1 1v2.172c0 .79.32 1.563.879 2.121L5.586 10 .879 14.708A2.976 2.976 0 0 0 0 16.829V19a1 1 0 0 0 1 1h12a1 1 0 0 0 1-1v-2.171a2.98 2.98 0 0 0-.879-2.122L8.414 10l4.707-4.707A3.02 3.02 0 0 0 14 3.171zm-2 13.658V18H2v-1.171c0-.268.104-.519.293-.708L7 11.414l4.707 4.708a.99.99 0 0 1 .293.707zm0-13.658c0 .263-.107.521-.293.707L7 8.585 2.293 3.878A1.008 1.008 0 0 1 2 3.171V2h10v1.171z"/>
            <path d="M4 17l3-3 3 3z"/>
        </g>
    </g>
</svg>
