<svg xmlns="http://www.w3.org/2000/svg" width="14" height="21" viewBox="0 0 14 21">
    <g fill="none" fill-rule="evenodd">
        <g fill="#52AE30" fill-rule="nonzero">
            <path d="M7 10c-1.654 0-3-1.346-3-3s1.346-3 3-3 3 1.346 3 3-1.346 3-3 3zm0-4a1.001 1.001 0 1 0 1 1c0-.551-.449-1-1-1z"/>
            <path d="M7 20.667C4.641 17.52 0 10.936 0 7c0-3.86 3.14-7 7-7s7 3.14 7 7c0 3.936-4.641 10.521-7 13.667zM7 2C4.243 2 2 4.243 2 7c0 2.591 3.107 7.583 5 10.291C8.892 14.582 12 9.589 12 7c0-2.757-2.243-5-5-5z"/>
        </g>
        <path d="M-5-2h24v24H-5z"/>
    </g>
</svg>
