<svg xmlns="http://www.w3.org/2000/svg" width="24" height="18" viewBox="0 0 24 18">
    <g fill="none" fill-rule="evenodd">
        <path d="M0-3h24v24H0z"/>
        <g fill="#52AE30" fill-rule="nonzero">
            <path d="M17 5.586L14.414 3h-2.828L17 8.415V16h-3.586L7 9.586V3H5v14a1 1 0 0 0 1 1h12a1 1 0 0 0 1-1V3h-2v2.586zM7 12.415L10.586 16H7v-3.585z"/>
            <path d="M23 0H1a1 1 0 0 0-1 1v6a1 1 0 0 0 1 1h3V6H2V2h20v4h-2v2h3a1 1 0 0 0 1-1V1a1 1 0 0 0-1-1z"/>
            <path d="M15 9c0-1.654-1.346-3-3-3S9 7.346 9 9s1.346 3 3 3 3-1.346 3-3zm-4 0c0-.551.449-1 1-1 .551 0 1 .449 1 1 0 .551-.449 1-1 1-.551 0-1-.449-1-1z"/>
        </g>
    </g>
</svg>
