<svg width="24" height="24" viewBox="0 0 24 24" fill="none" xmlns="http://www.w3.org/2000/svg">
<path d="M8.25101 17C8.25101 14.699 9.70001 13.25 12.001 13.25C14.302 13.25 15.751 14.699 15.751 17H8.25101Z" fill="#9E9E9E"/>
<path d="M12.001 12C13.3817 12 14.501 10.8807 14.501 9.5C14.501 8.11929 13.3817 7 12.001 7C10.6203 7 9.50101 8.11929 9.50101 9.5C9.50101 10.8807 10.6203 12 12.001 12Z" fill="#9E9E9E"/>
<path d="M20.001 22H16.001V20H20.001V16H22.001V20C22.001 21.103 21.104 22 20.001 22Z" fill="#9E9E9E"/>
<path d="M22.001 8H20.001V4H16.001V2H20.001C21.104 2 22.001 2.896 22.001 4V8Z" fill="#9E9E9E"/>
<path d="M4.00101 8H2.00101V4C2.00101 2.896 2.89801 2 4.00101 2H8.00101V4H4.00101V8Z" fill="#9E9E9E"/>
<path d="M8.00101 22H4.00101C2.89801 22 2.00101 21.103 2.00101 20V16H4.00101V20H8.00101V22Z" fill="#9E9E9E"/>
</svg>
